<svg xmlns="http://www.w3.org/2000/svg" width="19" height="25" viewBox="0 0 19 25" fill="none">
  <path d="M18.3706 7.89445V23.3355C18.3706 23.7769 18.196 24.2003 17.8852 24.5125C17.5743 24.8246 17.1528 25 16.7132 25H1.65746C1.21788 25 0.796293 24.8246 0.485459 24.5125C0.174625 24.2003 0 23.7769 0 23.3355L0 1.66453C0 1.22307 0.174625 0.799687 0.485459 0.487528C0.796293 0.175369 1.21788 0 1.65746 0L10.1846 0C11.5436 0.0963391 12.0019 0.572682 12.0019 0.572682C12.0019 0.572682 17.1822 5.74288 17.7737 6.31021C17.9859 6.52885 18.1398 6.79757 18.2214 7.09163C18.2748 7.2751 18.3105 7.46329 18.328 7.65361C18.333 7.71059 18.333 7.7679 18.328 7.82488C18.3473 7.84452 18.3619 7.86832 18.3706 7.89445Z" fill="#EC6336"/>
</svg>